<svg width="24" height="24" viewBox="0 0 24 24" fill="none" xmlns="http://www.w3.org/2000/svg">
<path fill-rule="evenodd" clip-rule="evenodd" d="M12 24C14.3734 24 16.6934 23.2962 18.6668 21.9776C20.6402 20.6591 22.1783 18.7849 23.0865 16.5922C23.9948 14.3995 24.2324 11.9867 23.7694 9.65892C23.3064 7.33115 22.1635 5.19295 20.4853 3.51472C18.807 1.83649 16.6689 0.693605 14.3411 0.230582C12.0133 -0.232441 9.60051 0.00519941 7.4078 0.913451C5.21508 1.8217 3.34094 3.35977 2.02236 5.33316C0.703788 7.30655 0 9.62663 0 12C0 15.1826 1.26428 18.2348 3.51472 20.4853C5.76515 22.7357 8.8174 24 12 24Z" fill="white"/>
<path d="M16.7027 14.0448C16.3255 14.0416 15.9489 14.014 15.5752 13.962C15.2476 13.8988 14.9239 13.8163 14.606 13.7148C14.5024 13.6828 14.3921 13.6798 14.2869 13.7059C14.1816 13.732 14.0855 13.7864 14.0089 13.8631L12.7097 15.155C11.0586 14.29 9.71088 12.9418 8.84647 11.2905L10.1371 9.99126C10.2136 9.91474 10.2679 9.81892 10.2942 9.714C10.3205 9.60907 10.3179 9.49897 10.2867 9.3954C10.1856 9.0778 10.103 8.75461 10.0394 8.42744C9.98741 8.05173 9.95933 7.6731 9.95536 7.29383C9.95181 7.14057 9.88834 6.99482 9.77856 6.88781C9.66879 6.78081 9.52145 6.72109 9.36816 6.72146H7.31109C7.23395 6.7208 7.15746 6.7355 7.08607 6.76472C7.01468 6.79393 6.94982 6.83707 6.89528 6.89161C6.84073 6.94616 6.79759 7.01102 6.76838 7.08241C6.73917 7.1538 6.72446 7.23029 6.72512 7.30743C6.73156 9.95065 7.77673 12.4854 9.63518 14.365C11.5139 16.2226 14.0471 17.2677 16.6891 17.2751C16.7662 17.2757 16.8427 17.261 16.9141 17.2318C16.9855 17.2026 17.0503 17.1595 17.1049 17.1049C17.1594 17.0504 17.2026 16.9855 17.2318 16.9141C17.261 16.8427 17.2757 16.7662 17.275 16.6891V14.632C17.2754 14.4787 17.2157 14.3314 17.1087 14.2216C17.0017 14.1119 16.8559 14.0484 16.7027 14.0448Z" fill="black"/>
</svg>
