<svg xmlns="http://www.w3.org/2000/svg" viewBox="0 0 334.84 105.16"><defs><style>.cls-1{fill:#fff;}</style></defs><g id="Layer_2" data-name="Layer 2"><g id="Слой_1" data-name="Слой 1"><path class="cls-1" d="M161.36.07c-13.91,0-25.67,11.46-25.67,25s11.76,25.09,25.67,25.09S187.1,38.69,187.1,25.09,175.31.07,161.36.07Zm0,41.6c-8.29,0-17.16-6.67-17.16-16.58A17.08,17.08,0,0,1,161.36,8.58c8.32,0,17.23,6.63,17.23,16.51A17.14,17.14,0,0,1,161.36,41.67Z"/><path class="cls-1" d="M215.77.26H193.4V50h8.51V35.38h13.86a17.56,17.56,0,0,0,0-35.12Zm0,26.93H201.91V8.45h13.86c4.73,0,9,4.47,9,9.37S220.5,27.19,215.77,27.19Z"/><path class="cls-1" d="M275.91.26V27.49c0,8.88-5.13,14.18-13.72,14.18s-13.59-5.3-13.59-14.18V.26h-8.52V27.49c0,15.67,11.14,22.69,22.17,22.69s22.17-7,22.17-22.69V.26Z"/><path class="cls-1" d="M313.71,19.34c-8.23,0-12.23-1.71-12.23-5.22,0-2.88,5.63-5.61,11.58-5.61a29,29,0,0,1,10.66,1.85l.84,4.19h7.55V5.12l-.47-.29C325.94,1.27,318.31,0,313.06,0a29.6,29.6,0,0,0-13.37,3.2c-4.86,2.6-7.44,6.38-7.44,10.92,0,11.51,11.85,13.93,21.78,13.93,10.38,0,11.58,3.75,11.58,6.58,0,3.38-5,7-13,7-6.71,0-12.3-2.16-16.61-6.4l-.87-.85-5,7.39.67.59c5.88,5.16,13.24,7.78,21.89,7.78,10.66,0,22.17-6,22.17-15.55C334.84,24.48,327.73,19.34,313.71,19.34Z"/><path class="cls-1" d="M25.67.07C11.76.07,0,11.53,0,25.09S11.76,50.18,25.67,50.18,51.41,38.69,51.41,25.09,39.62.07,25.67.07Zm0,41.6C17.38,41.67,8.51,35,8.51,25.09A17.08,17.08,0,0,1,25.67,8.58C34,8.58,42.9,15.21,42.9,25.09A17.14,17.14,0,0,1,25.67,41.67Z"/><path class="cls-1" d="M87.39,4.05v11.3l-.54-.65a17.24,17.24,0,0,0-13.3-6.19A17.69,17.69,0,0,0,57.78,18.6,31.42,31.42,0,0,0,54,9.09a25.66,25.66,0,0,1,33.43-5Z"/><path class="cls-1" d="M86.85,35.47l.54-.64v11.3a25.66,25.66,0,0,1-31.88-3.39c-.53-.52-1-1.07-1.53-1.63a32,32,0,0,0,3.81-9.53A17.69,17.69,0,0,0,73.55,41.66,17.21,17.21,0,0,0,86.85,35.47Z"/><polygon class="cls-1" points="92.83 0.26 92.83 8.12 109.7 8.12 109.7 49.98 118.22 49.98 118.22 8.12 135.09 8.12 135.09 0.26 92.83 0.26"/><path class="cls-1" d="M43.56,71.49A5.63,5.63,0,0,0,41,70.92H37.72V80H41a5.63,5.63,0,0,0,2.58-.57,4.11,4.11,0,0,0,1.71-1.59,4.93,4.93,0,0,0,0-4.75A4,4,0,0,0,43.56,71.49Z"/><path class="cls-1" d="M1,66.8V84.13H74.41V66.8ZM18.46,81.49v-8.8L14.08,80h-.79L8.92,72.74v8.75H7.27V69.42H8.68l5,8.48,5-8.48H20.1l0,12.07Zm14.39,0H24.09V69.42h8.52v1.5h-6.8v3.71h6.06v1.46H25.81V80h7ZM46.78,78.6a5.45,5.45,0,0,1-2.3,2.13,7.31,7.31,0,0,1-3.4.76H36V69.42h5.09a7.43,7.43,0,0,1,3.4.75,5.58,5.58,0,0,1,2.3,2.13,6.46,6.46,0,0,1,0,6.3Zm5.53,2.89H50.59V69.42h1.72Zm13,0-1.33-3H57.56l-1.33,3H54.45l5.47-12.07h1.71l5.48,12.07Z"/><polygon class="cls-1" points="58.16 77.09 63.37 77.09 60.76 71.17 58.16 77.09"/><polygon class="cls-1" points="9.15 98.35 14.36 98.35 11.75 92.43 9.15 98.35"/><path class="cls-1" d="M1,87.83v17.33H87.29V87.83Zm15.26,14.92-1.33-3H8.54l-1.32,3H5.44l5.47-12.08h1.7l5.49,12.08Zm5.14-3.67a4.45,4.45,0,0,0,1.72,1.67,5.42,5.42,0,0,0,5.28-.18V96.64h1.66v4.71A6.22,6.22,0,0,1,28,102.49a7.9,7.9,0,0,1-2.48.4,6.72,6.72,0,0,1-3.3-.81,6,6,0,0,1-2.3-2.2,6.4,6.4,0,0,1,0-6.34,5.85,5.85,0,0,1,2.31-2.21A7.36,7.36,0,0,1,28.18,91a5.38,5.38,0,0,1,2,1.39l-1.07,1.07a4.85,4.85,0,0,0-3.5-1.4,5.15,5.15,0,0,0-2.47.59,4.36,4.36,0,0,0-1.72,1.66,4.68,4.68,0,0,0-.62,2.39A4.63,4.63,0,0,0,21.43,99.08Zm21.06,3.67H33.73V90.67h8.52v1.5H35.46v3.71h6v1.47h-6v3.9h7Zm13.53,0H54.61l-7.25-9v9H45.63V90.67h1.42l7.24,9v-9H56Zm5.32-3.67a4.47,4.47,0,0,0,1.7,1.67,5,5,0,0,0,2.43.6,4.49,4.49,0,0,0,3.4-1.45L70,101a5.31,5.31,0,0,1-2,1.41,7,7,0,0,1-5.86-.32,5.91,5.91,0,0,1-2.29-2.2,6.47,6.47,0,0,1,0-6.34,5.87,5.87,0,0,1,2.3-2.2,6.63,6.63,0,0,1,3.27-.81A6.75,6.75,0,0,1,68,91a5.33,5.33,0,0,1,2,1.4L68.87,93.5a4.51,4.51,0,0,0-3.4-1.43,5,5,0,0,0-2.43.6,4.47,4.47,0,0,0-1.7,1.67,4.91,4.91,0,0,0,0,4.74Zm15.88-.51v4.18H75.51V98.54l-4.79-7.87h1.84L76.43,97l3.88-6.37H82Z"/></g></g></svg>